<svg width="229" height="218" viewBox="0 0 229 218" fill="none" xmlns="http://www.w3.org/2000/svg">
<path d="M114.5 216C176.535 216 227 168.189 227 109C227 49.8105 176.535 2 114.5 2C52.4654 2 2 49.8105 2 109C2 168.189 52.4654 216 114.5 216Z" stroke="#020B7B" stroke-width="4"/>
<path d="M94.2079 42.0404C93.2647 42.1516 92.3639 42.426 91.5695 42.8442C91.5695 42.8442 83.3488 46.9454 74.5108 51.3815C65.6727 55.8125 55.8404 60.6969 53.5919 61.6861C53.4532 61.7338 53.3167 61.7854 53.1825 61.8407C45.0203 65.8337 43.3242 72.3565 43.0318 76.0146C43.0123 76.1847 43.0318 76.3238 43.0318 76.5041C42.9603 77.8746 43.0318 78.7557 43.0318 78.7557V146.06C43.0318 155.839 57.4131 160.543 71.06 160.543C75.609 160.543 80.158 159.961 84.0572 158.93C86.6566 157.9 88.5217 155.839 88.5217 153.778V99.6791C88.5217 87.8288 91.7709 82.2644 101.519 77.6273C104.118 76.5968 131.373 61.681 131.373 61.681C132.673 60.6505 134.012 58.5587 134.012 57.013V56.5287C134.012 54.4678 132.712 52.8912 130.762 51.8607C128.813 50.8302 126.213 50.8302 124.264 51.8607C123.614 52.3759 83.9727 73.5364 75.5246 77.143C67.0764 81.2648 59.1937 82.2592 57.2441 80.1983C56.6397 79.7191 56.1134 78.2507 56.0289 76.8184V76.4938C56.0354 75.0924 56.4903 72.4544 60.0905 70.6975C63.7427 69.0848 72.8082 64.4941 81.6202 60.0735C85.3439 58.2032 85.8053 58.0022 88.7231 56.5287C89.1072 57.7873 90.0751 58.8852 91.434 59.6037C92.7929 60.3221 94.4432 60.6085 96.0565 60.4059C97.6697 60.2032 99.1275 59.5263 100.14 58.51C101.152 57.4936 101.644 56.2123 101.519 54.9212V47.1927C101.526 46.4583 101.335 45.7312 100.959 45.0601C100.583 44.389 100.03 43.7893 99.3378 43.3014C98.6455 42.8135 97.8296 42.4486 96.9449 42.2311C96.0601 42.0136 95.1269 41.9486 94.2079 42.0404ZM146.196 60.0735C145.163 60.2097 144.186 60.542 143.35 61.0421C143.35 61.0421 110.636 78.4929 104.97 81.4864C104.901 81.5401 104.834 81.5951 104.768 81.6512C100.063 84.4489 97.2752 87.7773 96.034 90.8223C95.3385 92.5401 94.9962 94.3355 95.0202 96.1395V97.7522C95.0108 97.9118 95.0108 98.0717 95.0202 98.2313V160.543C95.0202 170.332 109.239 176 122.236 176C128.085 176 133.362 175 137.261 172.94C145.059 169.333 182.751 146.055 182.751 146.055C184.7 145.024 186 143.571 186 142.026V75.046C186 72.4699 184.739 70.9242 182.14 69.8937C180.19 68.8633 176.987 69.3476 175.037 70.378C164.639 76.5608 136.65 94.0167 130.151 97.1081C121.053 101.23 112.482 102.26 109.233 99.6843C107.933 98.6538 108.017 97.6852 108.017 96.1395C108.056 95.2533 108.18 94.4908 108.427 93.8828C108.791 92.9863 109.531 91.8837 112.28 90.1834C112.41 90.101 112.345 90.1062 112.482 90.0237C117.18 87.5352 131.549 79.7707 140.92 74.7214C141.45 75.8506 142.464 76.7966 143.783 77.3947C145.103 77.9929 146.645 78.2053 148.142 77.9952C149.639 77.7851 150.995 77.1656 151.975 76.2446C152.956 75.3236 153.498 74.1593 153.507 72.9542V65.2257C153.514 64.4914 153.324 63.7642 152.948 63.0931C152.571 62.422 152.019 61.8224 151.326 61.3344C150.634 60.8465 149.818 60.4816 148.933 60.2641C148.049 60.0466 147.115 59.9816 146.196 60.0735ZM173.003 97.7522V108.057L140.51 128.017V117.712L173.003 97.7522Z" fill="#020B7B"/>
</svg>
