<svg width="229" height="218" viewBox="0 0 229 218" fill="none" xmlns="http://www.w3.org/2000/svg">
<path d="M114.5 216C176.535 216 227 168.189 227 109C227 49.8105 176.535 2 114.5 2C52.4654 2 2 49.8105 2 109C2 168.189 52.4654 216 114.5 216Z" stroke="#020B7B" stroke-width="4"/>
<path d="M75.2155 118.997C71.7052 119.002 68.2383 119.641 65.0568 120.871C61.8753 122.1 59.0559 123.891 56.7952 126.117C54.5346 128.344 52.8872 130.952 51.9681 133.761C51.049 136.569 50.8802 139.51 51.4737 142.378C52.0671 145.247 53.4084 147.973 55.404 150.367C57.3996 152.761 60.0014 154.765 63.0277 156.24C66.0541 157.714 69.4321 158.624 72.9261 158.904C76.42 159.185 79.9458 158.83 83.2572 157.864" stroke="#020B7B" stroke-width="8" stroke-linecap="round" stroke-linejoin="round"/>
<path d="M53.2135 129.697C48.4011 127.777 44.2413 124.893 41.1096 121.306C37.9779 117.719 35.9728 113.542 35.2754 109.152C34.578 104.762 35.2101 100.297 37.1148 96.1607C39.0194 92.0239 42.1366 88.3455 46.1851 85.4573M46.4263 84.9173C43.789 81.6456 42.6331 77.7059 43.1632 73.7955C43.6933 69.8851 45.8752 66.2564 49.3227 63.5516C52.7703 60.8468 57.261 59.2405 61.9999 59.0171C66.7388 58.7936 71.4203 59.9674 75.2155 62.3306M77.1294 62.7639C75.8466 60.5042 75.1927 58.0344 75.2161 55.537C75.2395 53.0396 75.9397 50.5786 77.2648 48.3357C78.5899 46.0928 80.5061 44.1255 82.8717 42.5791C85.2373 41.0327 87.9919 39.9469 90.9319 39.4018C93.8718 38.8567 96.9219 38.8663 99.8567 39.43C102.792 39.9936 105.536 41.0968 107.887 42.6581C110.239 44.2193 112.137 46.1987 113.441 48.4499C114.746 50.701 115.423 53.1665 115.424 55.6639M115.424 55.6639V158.997M115.424 55.6639C115.424 53.1665 116.102 50.701 117.406 48.4499C118.711 46.1987 120.609 44.2193 122.96 42.6581C125.312 41.0968 128.056 39.9936 130.991 39.43C133.926 38.8663 136.976 38.8567 139.916 39.4018C142.856 39.9469 145.61 41.0327 147.976 42.5791C150.342 44.1255 152.258 46.0928 153.583 48.3357C154.908 50.5786 155.608 53.0396 155.632 55.537C155.655 58.0344 155.001 60.5042 153.718 62.7639M115.424 158.997C115.424 162.533 113.729 165.925 110.713 168.425C107.697 170.926 103.606 172.331 99.3405 172.331C95.0749 172.331 90.9841 170.926 87.9679 168.425C84.9517 165.925 83.2572 162.533 83.2572 158.997M115.424 158.997C115.424 162.533 117.118 165.925 120.135 168.425C123.151 170.926 127.242 172.331 131.507 172.331M115.424 72.3306C115.424 77.6349 117.966 82.722 122.49 86.4727C127.014 90.2235 133.15 92.3306 139.549 92.3306M184.663 85.4573C188.174 87.9577 190.99 91.0583 192.92 94.5462C194.849 98.0341 195.846 101.827 195.841 105.664C195.841 110.351 194.385 114.757 191.82 118.584M184.421 84.9173C187.059 81.6456 188.215 77.7059 187.684 73.7955C187.154 69.8851 184.972 66.2564 181.525 63.5516C178.077 60.8468 173.587 59.2405 168.848 59.0171C164.109 58.7936 159.427 59.9674 155.632 62.3306M183.778 162.331L195.841 172.331M147.59 148.997C147.59 153.418 149.709 157.657 153.479 160.782C157.249 163.908 162.363 165.664 167.695 165.664C173.027 165.664 178.14 163.908 181.91 160.782C185.681 157.657 187.799 153.418 187.799 148.997C187.799 144.577 185.681 140.338 181.91 137.212C178.14 134.087 173.027 132.331 167.695 132.331C162.363 132.331 157.249 134.087 153.479 137.212C149.709 140.338 147.59 144.577 147.59 148.997Z" stroke="#020B7B" stroke-width="8" stroke-linecap="round" stroke-linejoin="round"/>
</svg>
