<svg width="88" height="76" viewBox="0 0 88 76" fill="none" xmlns="http://www.w3.org/2000/svg">
<path opacity="0.2" d="M78.5 6.875V21.0273C74.7927 17.7121 69.9202 16.0054 64.9545 16.2827C59.9888 16.56 55.3367 18.7985 52.0215 22.5059C48.7063 26.2132 46.9996 31.0856 47.2769 36.0513C47.5541 41.017 49.7927 45.6692 53.5 48.9844V60H6.625C5.7962 60 5.00134 59.6708 4.41529 59.0847C3.82924 58.4987 3.5 57.7038 3.5 56.875V6.875C3.5 6.0462 3.82924 5.25134 4.41529 4.66529C5.00134 4.07924 5.7962 3.75 6.625 3.75H75.375C76.2038 3.75 76.9987 4.07924 77.5847 4.66529C78.1708 5.25134 78.5 6.0462 78.5 6.875Z" fill="#074D8D"/>
<path d="M87.875 35C87.8783 31.4112 86.9986 27.8767 85.3135 24.7082C83.6284 21.5397 81.1895 18.8344 78.2121 16.8309C75.2346 14.8274 71.8099 13.5872 68.24 13.2198C64.6701 12.8523 61.0646 13.3687 57.7414 14.7236C54.4182 16.0785 51.4794 18.2302 49.1841 20.989C46.8888 23.7478 45.3075 27.0289 44.5797 30.5431C43.8518 34.0573 43.9997 37.6966 45.0104 41.1401C46.021 44.5837 47.8634 47.7256 50.375 50.2891V72.5C50.3746 73.033 50.5105 73.5571 50.7699 74.0228C51.0292 74.4884 51.4033 74.8799 51.8566 75.1602C52.3099 75.4405 52.8273 75.6002 53.3597 75.6241C53.8921 75.648 54.4218 75.5354 54.8984 75.2969L66 69.7422L77.1016 75.2969C77.5782 75.5354 78.1079 75.648 78.6403 75.6241C79.1727 75.6002 79.6901 75.4405 80.1434 75.1602C80.5967 74.8799 80.9708 74.4884 81.2301 74.0228C81.4895 73.5571 81.6254 73.033 81.625 72.5V50.2891C85.633 46.2097 87.8776 40.7188 87.875 35ZM66 19.375C69.0903 19.375 72.1113 20.2914 74.6808 22.0083C77.2503 23.7252 79.253 26.1655 80.4356 29.0206C81.6182 31.8757 81.9277 35.0173 81.3248 38.0483C80.7219 41.0792 79.2337 43.8633 77.0485 46.0485C74.8633 48.2337 72.0792 49.7219 69.0483 50.3248C66.0173 50.9277 62.8757 50.6182 60.0206 49.4356C57.1655 48.253 54.7252 46.2503 53.0083 43.6808C51.2914 41.1113 50.375 38.0903 50.375 35C50.375 30.856 52.0212 26.8817 54.9515 23.9515C57.8817 21.0212 61.856 19.375 66 19.375ZM67.3984 63.4531C66.9643 63.2359 66.4855 63.1228 66 63.1228C65.5145 63.1228 65.0357 63.2359 64.6016 63.4531L56.625 67.4453V54.7617C59.5545 56.1531 62.7569 56.875 66 56.875C69.2431 56.875 72.4455 56.1531 75.375 54.7617V67.4453L67.3984 63.4531ZM44.125 60C44.125 60.8288 43.7958 61.6237 43.2097 62.2097C42.6237 62.7958 41.8288 63.125 41 63.125H6.625C4.9674 63.125 3.37768 62.4665 2.20558 61.2944C1.03348 60.1223 0.375 58.5326 0.375 56.875V6.875C0.375 5.2174 1.03348 3.62768 2.20558 2.45558C3.37768 1.28348 4.9674 0.625 6.625 0.625H75.375C77.0326 0.625 78.6223 1.28348 79.7944 2.45558C80.9665 3.62768 81.625 5.2174 81.625 6.875C81.625 7.7038 81.2958 8.49866 80.7097 9.08471C80.1237 9.67076 79.3288 10 78.5 10C77.6712 10 76.8763 9.67076 76.2903 9.08471C75.7042 8.49866 75.375 7.7038 75.375 6.875H6.625V56.875H41C41.8288 56.875 42.6237 57.2042 43.2097 57.7903C43.7958 58.3763 44.125 59.1712 44.125 60ZM37.875 38.125C37.875 38.9538 37.5458 39.7487 36.9597 40.3347C36.3737 40.9208 35.5788 41.25 34.75 41.25H19.125C18.2962 41.25 17.5013 40.9208 16.9153 40.3347C16.3292 39.7487 16 38.9538 16 38.125C16 37.2962 16.3292 36.5013 16.9153 35.9153C17.5013 35.3292 18.2962 35 19.125 35H34.75C35.5788 35 36.3737 35.3292 36.9597 35.9153C37.5458 36.5013 37.875 37.2962 37.875 38.125ZM37.875 25.625C37.875 26.4538 37.5458 27.2487 36.9597 27.8347C36.3737 28.4208 35.5788 28.75 34.75 28.75H19.125C18.2962 28.75 17.5013 28.4208 16.9153 27.8347C16.3292 27.2487 16 26.4538 16 25.625C16 24.7962 16.3292 24.0013 16.9153 23.4153C17.5013 22.8292 18.2962 22.5 19.125 22.5H34.75C35.5788 22.5 36.3737 22.8292 36.9597 23.4153C37.5458 24.0013 37.875 24.7962 37.875 25.625Z" fill="#074D8D"/>
</svg>
