<?xml version="1.0" standalone="no"?>
<!DOCTYPE svg PUBLIC "-//W3C//DTD SVG 20010904//EN"
 "http://www.w3.org/TR/2001/REC-SVG-20010904/DTD/svg10.dtd">
<svg version="1.0" xmlns="http://www.w3.org/2000/svg"
 width="840.000000pt" height="572.000000pt" viewBox="0 0 840.000000 572.000000"
 preserveAspectRatio="xMidYMid meet">

<g transform="translate(0.000000,572.000000) scale(0.100000,-0.100000)"
fill="#000000" stroke="none">
<path d="M5190 3945 c0 -650 3 -985 10 -985 6 0 10 22 10 48 0 57 33 127 73
156 40 29 127 28 187 -3 l45 -24 20 29 c64 91 127 123 200 103 38 -11 95 -59
126 -108 l15 -24 42 22 c93 47 175 35 228 -34 22 -30 29 -50 32 -101 3 -35 8
-64 13 -64 5 0 9 422 9 985 l0 985 -505 0 -505 0 0 -985z"/>
<path d="M2102 4726 c-160 -39 -323 -170 -395 -317 -69 -141 -67 -85 -67
-1390 0 -787 4 -1195 11 -1235 14 -79 87 -227 144 -291 59 -67 178 -146 263
-175 l67 -23 1495 -3 1495 -2 31 120 32 120 -1502 2 -1501 3 -60 24 c-117 47
-207 164 -225 292 -12 83 -12 2244 -1 2326 19 131 92 230 211 287 l65 31 1468
3 1467 2 0 120 0 120 -1472 -1 c-1160 -1 -1484 -3 -1526 -13z"/>
<path d="M6300 4591 l0 -129 29 -12 c47 -19 121 -97 147 -155 14 -30 30 -83
35 -117 6 -39 9 -500 7 -1208 l-3 -1145 -23 -57 c-43 -107 -157 -203 -264
-223 -21 -4 -38 -10 -38 -13 0 -18 64 -232 69 -232 4 0 32 7 62 16 215 64 375
237 424 459 14 62 15 212 13 1270 -3 1070 -5 1205 -20 1250 -53 165 -143 280
-283 362 -40 23 -135 63 -152 63 -2 0 -3 -58 -3 -129z"/>
<path d="M2882 3814 c-66 -17 -96 -33 -159 -82 -204 -162 -202 -474 5 -694
l64 -67 -35 -14 c-18 -8 -45 -18 -58 -22 -43 -13 -116 -53 -183 -100 -144
-101 -270 -282 -283 -408 -5 -51 -3 -60 18 -83 50 -54 166 -93 354 -118 141
-19 375 -32 375 -20 0 5 -46 55 -102 111 l-101 101 86 209 c48 115 87 213 87
219 0 6 -11 21 -25 34 -14 13 -25 27 -25 31 0 3 29 4 64 2 36 -3 78 -1 96 6
35 12 35 9 -16 -49 l-21 -25 89 -214 89 -214 -108 -109 -108 -108 50 0 c92 0
319 20 405 36 172 31 269 71 299 126 32 56 -24 208 -120 326 -87 108 -242 215
-369 257 -30 10 -58 19 -61 21 -3 1 24 34 60 71 197 206 211 494 32 670 -107
105 -257 146 -399 107z"/>
<path d="M3787 3536 c-48 -45 -46 -111 6 -149 25 -19 47 -20 584 -23 307 -1
595 0 641 3 l82 6 0 93 0 94 -644 0 -643 0 -26 -24z"/>
<path d="M5640 3150 c-16 -17 -34 -46 -40 -64 -9 -28 -18 -36 -56 -46 -38 -11
-47 -11 -62 3 -35 32 -108 58 -135 48 -33 -13 -51 -69 -43 -129 5 -41 3 -49
-21 -74 -24 -25 -34 -28 -89 -28 -71 0 -111 -14 -120 -42 -9 -29 5 -73 36
-116 26 -36 27 -42 17 -79 -9 -34 -18 -44 -65 -68 -37 -20 -59 -39 -70 -62
-15 -31 -15 -35 4 -60 11 -15 42 -38 69 -53 37 -20 51 -35 61 -63 12 -35 11
-40 -22 -94 -39 -65 -42 -95 -14 -123 20 -20 50 -25 123 -20 31 1 45 -4 68
-26 27 -25 29 -32 23 -75 -8 -56 10 -115 38 -130 26 -14 62 -4 118 31 42 27
49 28 87 18 34 -8 44 -16 53 -42 6 -18 23 -47 38 -65 49 -59 108 -38 151 53
16 34 27 45 59 54 37 11 44 10 77 -12 110 -75 170 -46 164 81 -2 46 1 57 25
82 26 27 35 30 93 30 116 0 144 49 82 146 -24 39 -29 55 -24 82 7 37 9 40 80
86 89 58 83 112 -20 166 -43 23 -51 32 -59 67 -7 35 -5 45 18 79 46 67 48 121
6 142 -14 7 -55 13 -91 13 -57 0 -69 3 -89 25 -19 21 -23 36 -24 99 -1 87 -15
110 -67 108 -17 0 -55 -15 -83 -32 -46 -29 -53 -31 -88 -21 -30 9 -43 21 -59
54 -47 93 -97 112 -149 57z"/>
<path d="M3787 3090 c-48 -38 -45 -110 7 -152 19 -16 68 -18 634 -18 530 0
617 2 642 15 29 15 30 17 30 95 l0 80 -644 0 c-633 0 -644 0 -669 -20z"/>
<path d="M5470 1795 c-26 -14 -63 -24 -87 -25 -31 0 -43 -5 -47 -17 -27 -90
-207 -776 -204 -779 2 -2 48 26 102 62 54 36 99 64 101 62 1 -2 22 -50 46
-107 33 -82 45 -100 51 -85 4 10 53 189 109 398 l101 378 -36 30 c-19 16 -45
47 -57 68 -13 22 -25 40 -28 40 -3 -1 -26 -12 -51 -25z"/>
<path d="M5850 1790 c-12 -28 -66 -83 -104 -105 -16 -9 -7 -47 100 -448 65
-241 121 -432 124 -425 4 7 22 72 40 143 18 72 35 132 37 134 2 3 53 -44 114
-105 l109 -109 -14 50 c-12 39 -161 595 -217 808 -8 32 -14 37 -38 37 -15 0
-50 11 -77 25 -27 14 -52 25 -55 25 -4 0 -12 -13 -19 -30z"/>
</g>
</svg>
