<svg width="94" height="81" viewBox="0 0 94 81" fill="none" xmlns="http://www.w3.org/2000/svg">
<path d="M82.25 10.125H11.75C8.50533 10.125 5.875 12.3916 5.875 15.1875V55.6875C5.875 58.4834 8.50533 60.75 11.75 60.75H82.25C85.4947 60.75 88.125 58.4834 88.125 55.6875V15.1875C88.125 12.3916 85.4947 10.125 82.25 10.125Z" stroke="#074D8D" stroke-width="6.25" stroke-linejoin="round"/>
<path d="M55.8125 70.875L54.3438 60.75H39.6562L38.1875 70.875H55.8125Z" fill="#074D8D" stroke="#074D8D" stroke-width="6.25" stroke-linecap="round" stroke-linejoin="round"/>
<path d="M67.5625 70.875H26.4375" stroke="#074D8D" stroke-width="6.25" stroke-linecap="round" stroke-linejoin="round"/>
<path d="M5.875 48.0938V55.6875C5.87936 57.029 6.49973 58.3145 7.60056 59.2631C8.7014 60.2117 10.1932 60.7462 11.75 60.75H82.25C83.8068 60.7462 85.2986 60.2117 86.3994 59.2631C87.5003 58.3145 88.1206 57.029 88.125 55.6875V48.0938H5.875ZM47 58.2188C46.419 58.2188 45.8511 58.0703 45.368 57.7922C44.8849 57.514 44.5084 57.1187 44.2861 56.6562C44.0638 56.1936 44.0056 55.6847 44.1189 55.1937C44.2323 54.7027 44.5121 54.2516 44.9229 53.8976C45.3337 53.5436 45.8571 53.3026 46.4269 53.2049C46.9967 53.1072 47.5874 53.1573 48.1241 53.3489C48.6609 53.5405 49.1197 53.865 49.4424 54.2812C49.7652 54.6975 49.9375 55.1869 49.9375 55.6875C49.9375 56.3588 49.628 57.0027 49.0771 57.4774C48.5262 57.9521 47.7791 58.2188 47 58.2188Z" fill="#074D8D"/>
</svg>
