<?xml version="1.0" standalone="no"?>
<!DOCTYPE svg PUBLIC "-//W3C//DTD SVG 20010904//EN"
 "http://www.w3.org/TR/2001/REC-SVG-20010904/DTD/svg10.dtd">
<svg version="1.0" xmlns="http://www.w3.org/2000/svg"
 width="270.000000pt" height="180.000000pt" viewBox="0 0 270.000000 180.000000"
 preserveAspectRatio="xMidYMid meet">

<g transform="translate(0.000000,180.000000) scale(0.100000,-0.100000)"
fill="#000000" stroke="none">
<path d="M1330 1424 c0 -3 4 -14 10 -24 8 -15 -1 -28 -57 -80 l-66 -62 24 -19
c31 -24 42 -20 53 22 10 36 51 99 65 99 5 0 34 -41 66 -91 32 -50 67 -95 79
-100 32 -14 278 -70 284 -65 3 4 -90 150 -159 248 -5 8 -261 77 -286 78 -7 0
-13 -3 -13 -6z"/>
<path d="M1331 1243 c-22 -32 -41 -66 -41 -77 0 -70 149 -186 238 -186 36 0
42 4 78 58 21 31 40 60 42 63 1 4 -14 9 -35 12 -21 4 -62 14 -91 22 -50 15
-56 21 -101 91 l-48 76 -42 -59z"/>
<path d="M926 1164 c-14 -13 -16 -51 -16 -258 0 -175 3 -245 12 -254 17 -17
609 -17 626 0 8 8 12 57 12 155 l0 143 -25 0 -25 0 0 -135 0 -135 -275 0 -275
0 0 210 0 211 163 -3 163 -3 -16 43 -15 42 -157 0 c-129 0 -159 -3 -172 -16z
m132 -26 c-3 -7 -25 -14 -51 -16 -37 -2 -47 0 -47 12 0 12 12 16 51 16 36 0
49 -4 47 -12z m142 -3 c0 -11 -12 -15 -50 -15 -38 0 -50 4 -50 15 0 11 12 15
50 15 38 0 50 -4 50 -15z"/>
<path d="M1195 996 c-61 -27 -91 -88 -74 -149 14 -52 50 -80 112 -85 46 -4 57
-1 85 23 45 38 59 94 35 142 -33 66 -100 96 -158 69z m76 -77 c26 -17 46 -36
43 -42 -5 -13 -89 -67 -104 -67 -13 0 -22 36 -19 83 4 69 10 71 80 26z"/>
<path d="M857 303 c-15 -15 -7 -63 13 -73 42 -22 82 34 48 68 -13 13 -50 16
-61 5z m51 -36 c3 -21 -1 -27 -16 -27 -24 0 -36 28 -21 47 17 20 33 11 37 -20z"/>
<path d="M951 263 c2 -45 2 -46 8 -13 l6 34 18 -27 c25 -38 37 -34 37 13 0 45
-17 55 -22 13 l-4 -28 -14 28 c-20 40 -30 33 -29 -20z"/>
<path d="M1042 273 c-1 -24 1 -43 6 -44 4 0 15 -2 24 -4 10 -2 20 1 24 6 3 5
-6 9 -20 9 -21 0 -25 5 -29 38 l-4 37 -1 -42z"/>
<path d="M1110 270 c0 -22 5 -40 10 -40 6 0 10 18 10 40 0 22 -4 40 -10 40 -5
0 -10 -18 -10 -40z"/>
<path d="M1151 263 c2 -45 2 -46 8 -13 l6 35 19 -32 c11 -18 23 -30 28 -27 12
7 10 84 -2 84 -5 0 -10 -12 -10 -27 l-1 -28 -17 28 c-24 39 -32 34 -31 -20z"/>
<path d="M1240 271 c0 -42 19 -58 48 -41 14 8 12 9 -10 10 -16 0 -28 5 -28 10
0 6 11 10 25 10 14 0 25 5 25 10 0 6 -12 10 -27 10 -29 0 -22 15 12 23 13 3 9
5 -12 6 -32 1 -33 0 -33 -38z"/>
<path d="M1351 288 c-10 -26 2 -56 25 -65 15 -6 44 13 44 29 0 6 -7 5 -15 -2
-20 -17 -45 -5 -45 20 0 26 25 36 47 19 14 -12 16 -12 11 1 -2 8 -17 16 -31
18 -21 3 -29 -2 -36 -20z"/>
<path d="M1438 285 c-10 -22 -9 -29 10 -47 20 -20 22 -20 46 -4 29 18 31 28
16 57 -16 28 -58 25 -72 -6z m57 -15 c0 -16 -6 -26 -18 -28 -19 -4 -32 20 -23
44 9 25 41 13 41 -16z"/>
<path d="M1530 275 c0 -24 6 -37 19 -45 34 -18 51 -2 50 44 l-2 41 -6 -35 c-9
-50 -41 -55 -41 -6 0 20 -4 36 -10 36 -5 0 -10 -16 -10 -35z"/>
<path d="M1620 271 c0 -23 5 -41 10 -41 6 0 10 7 10 15 0 22 15 18 33 -7 14
-22 15 -21 14 22 -2 43 -3 45 -34 48 -32 3 -33 2 -33 -37z m51 14 c-1 -15 -24
-12 -29 3 -3 9 2 13 12 10 10 -1 17 -7 17 -13z"/>
<path d="M1717 304 c-15 -15 -6 -34 18 -40 14 -3 25 -10 25 -15 0 -14 -38 -11
-43 4 -4 7 -6 6 -6 -4 -1 -19 22 -31 44 -23 25 10 18 43 -11 50 -17 5 -22 10
-15 17 7 7 15 6 27 -4 15 -12 17 -12 12 1 -5 16 -39 25 -51 14z"/>
<path d="M1790 271 c0 -35 3 -39 30 -43 17 -3 30 -1 30 4 0 4 -9 8 -20 8 -11
0 -20 5 -20 10 0 6 9 10 20 10 11 0 20 5 20 10 0 6 -12 10 -27 10 -29 0 -22
15 12 23 13 3 9 5 -12 6 -32 1 -33 0 -33 -38z"/>
</g>
</svg>
