<svg width="229" height="218" viewBox="0 0 229 218" fill="none" xmlns="http://www.w3.org/2000/svg">
<path d="M114.5 216C176.535 216 227 168.189 227 109C227 49.8105 176.535 2 114.5 2C52.4654 2 2 49.8105 2 109C2 168.189 52.4654 216 114.5 216Z" stroke="#020B7B" stroke-width="4"/>
<path d="M169.667 151C177.183 151 183.333 144.7 183.333 137V67C183.333 59.3 177.183 53 169.667 53H60.3333C52.8167 53 46.6667 59.3 46.6667 67V137C46.6667 144.7 52.8167 151 60.3333 151H33V165H197V151H169.667ZM60.3333 67H169.667V137H60.3333V67Z" fill="#020B7B"/>
</svg>
