<svg width="229" height="218" viewBox="0 0 229 218" fill="none" xmlns="http://www.w3.org/2000/svg">
<path d="M114.5 216C176.535 216 227 168.189 227 109C227 49.8105 176.535 2 114.5 2C52.4654 2 2 49.8105 2 109C2 168.189 52.4654 216 114.5 216Z" stroke="#020B7B" stroke-width="4"/>
<path d="M58 83.3H43V161.9C43 165.374 44.5804 168.706 47.3934 171.163C50.2064 173.62 54.0218 175 58 175H148V161.9H58V83.3Z" fill="#020B7B"/>
<path d="M178 44H88C84.0217 44 80.2064 45.3802 77.3934 47.8369C74.5803 50.2936 73 53.6257 73 57.1V135.7C73 139.174 74.5803 142.506 77.3934 144.963C80.2064 147.42 84.0217 148.8 88 148.8H178C181.978 148.8 185.794 147.42 188.607 144.963C191.42 142.506 193 139.174 193 135.7V57.1C193 53.6257 191.42 50.2936 188.607 47.8369C185.794 45.3802 181.978 44 178 44ZM110.5 122.6V70.2L163 96.4L110.5 122.6Z" fill="#020B7B"/>
</svg>
